<svg xmlns="http://www.w3.org/2000/svg" xmlns:xlink="http://www.w3.org/1999/xlink" viewBox="0 0 3875.99 4948.15"><defs><style>.cls-1,.cls-4{fill:#bfced5;}.cls-2{fill:#fefefe;}.cls-3{fill:#d6e0e4;}.cls-4{opacity:0.2;}.cls-5,.cls-6{fill:none;stroke:#879199;stroke-linecap:round;stroke-linejoin:round;stroke-width:23px;}.cls-6{stroke-dasharray:1 130.13;}.cls-7{fill:#67748c;}.cls-8{fill:#e85f44;}.cls-9{fill:url(#linear-gradient);}.cls-10{fill:#f9e1af;}.cls-11{fill:url(#linear-gradient-2);}.cls-12{fill:url(#linear-gradient-3);}.cls-13{fill:#fff8b6;}.cls-14,.cls-18{fill:#b57676;}.cls-14,.cls-19{opacity:0.21;}.cls-15{fill:#fff;}.cls-16{fill:#a2a7bc;}.cls-17{fill:#6d7489;}.cls-19,.cls-21{fill:#f77c7c;}.cls-20{fill:#879199;}.cls-21{opacity:0.51;}</style><linearGradient id="linear-gradient" x1="3378.61" y1="2751.21" x2="3378.61" y2="2751.21" gradientUnits="userSpaceOnUse"><stop offset="0" stop-color="#ffc3aa"/><stop offset="0.8" stop-color="#ffe2cd"/><stop offset="1" stop-color="#ffead7"/></linearGradient><linearGradient id="linear-gradient-2" x1="1559.48" y1="3337.02" x2="1588.31" y2="4447.02" gradientTransform="translate(-166.32 58.02) rotate(-2.53)" xlink:href="#linear-gradient"/><linearGradient id="linear-gradient-3" x1="1282.86" y1="2840.65" x2="1410.37" y2="3563.84" gradientTransform="translate(-166.32 58.02) rotate(-2.53)" xlink:href="#linear-gradient"/></defs><title>whereiwant</title><g id="Layer_12" data-name="Layer 12"><g id="nFkxsa.tif"><path class="cls-1" d="M167.19,2703.46v-2.85c5.69.09,11.39.27,17.08.27h3707c5.22,0,10.46.24,15.67,0,8-.39,11,3.27,10.87,11.09-.25,23.24,1.59,46.5,1.61,69.67q.61,784.29.6,1568.57c0,14-4.19,19.17-17.71,17.16-2.79-.42-5.69-.06-8.54-.06q-1801.51,0-3603,0c-40.33,0-80.68,1.12-120.95-2.28,0-.95.11-1.9.11-2.85q0-822.58,0-1645.16C170,2712.33,170.91,2707.39,167.19,2703.46ZM735.82,4356.53c141,0,282.06-.66,423.07.67,22.9.22,35.31-7.94,46.66-26,44.22-70.34,85-142.65,124.91-215.45,48.6-88.61,96.27-177.73,144.86-266.35,6.1-11.12,5-17.88-4.05-26.83q-112.52-111-227.74-219.15-101-95.18-204.63-187.38c-66.45-58.79-134-116.22-206-168.15-26.59-19.17-54.13-36.84-84.18-50.33-10.1-4.54-15.47-3.12-17.54,8.78-3.17,18.2-7.58,36.18-11.26,54.29-12.78,62.91-14.95,126.95-20.07,190.67-2.9,36-16.27,65.63-50.3,83.66-23.2,12.29-42.95,29.38-59.24,50.36-44,56.65-84.09,116-122.75,176.35-37.39,58.34-74.26,117.43-98.25,182.7-19.78,53.8-34.68,109.4-51.83,164.17-23.24,74.21-37.66,149.81-36.24,227.94.35,19.34.85,20,20.13,20Q518.58,4356.55,735.82,4356.53Zm2434.7-1644.87q-208.65,0-417.31-.24c-11.33,0-17.07,3.16-20.5,14.27q-14.7,47.58-31.35,94.54c-5.77,16.17-4.27,29.32,9.44,40.49,7.44,6.06,9.1,12.71,1.47,20.45-11,11.12-11.48,23.78-5.79,38,15.34,38.47,2.47,62.31-37.67,70-9.23,1.78-13,5.79-15.08,15.29-13.16,59.74-22.89,120.08-32.77,180.4-1.8,11,2.13,15.82,12.81,17.12,25.38,3.08,50.54,7.84,76.17,9.11,28.59,1.42,53,11.88,73.39,32.79,66.88,68.7,135.46,135.71,202.38,204.4,84.15,86.37,170.05,171,255.21,256.39,13.14,13.17,13.26,13.06,27.06-.06q83-78.92,166.18-157.76,115.06-109.28,230.06-218.63c51.53-49.09,102.72-98.54,154.25-147.63,23.35-22.24,46.65-44.58,70.95-65.76,14.24-12.41,22.79-25.69,19.78-45.31-1.28-8.35-.41-17.06-.17-25.6.17-6.11-1.94-10.84-6.2-15.24-9.9-10.21-19.25-21-29.13-31.19-62.94-65.22-126.41-129.94-188.75-195.73-23.83-25.15-49.31-48.8-71.75-75.12-9.8-11.49-19.48-15.4-33.92-15.35C3443,2711.83,3306.77,2711.66,3170.52,2711.66Zm2,1483c67.61,3.07,129.82-16.1,188.68-46.64,60.18-31.22,112.89-73.16,162-119.61,12.85-12.14,12.71-12.18-.21-25.27-98.37-99.66-197.89-198.16-296-298.07C3076.73,3552,2924.93,3400.39,2773.6,3248.3c-14.79-14.87-33.13-24.29-54.15-25.88-29.81-2.26-59.44-5.52-88.77-11.14-9.1-1.74-13.2,1-14,10.28-1.34,15.09-3.28,30.12-5.15,45.16-11.52,92.79-14.8,186.08-16.22,279.44-.45,29.84,2.08,59.71,2.15,89.57.11,49.92,7.22,99.19,12.52,148.62,7.12,66.39,14.83,132.71,21.68,199.13.95,9.2,4.27,14.41,12.2,18.77,79,43.45,158.78,85.54,240.42,123.78A722,722,0,0,0,3172.57,4194.69ZM178.25,2779.61c0,10,0,16.06,0,22.15q0,765,0,1530.07a88.78,88.78,0,0,1-.06,10c-1.23,10.84,2.63,15.39,14.29,15,21.82-.8,43.71-.87,65.51,0,12.52.51,15.51-4.52,14.59-15.87-3.78-46.65,2.06-92.65,10.45-138.4,10.56-57.6,30.36-112.62,47.48-168.39,15-48.94,27.7-98.55,51.55-144.52,47.34-91.25,104-176.49,163-260.42,31.69-45.08,65.61-87.09,115.32-113.78,14.23-7.64,20.59-22.38,24.16-37.3,3.51-14.69,6.3-29.85,6.85-44.9,2.82-77.45,12.17-154,30.14-229.4,2.2-9.23-.33-12.94-8.79-15.38-20.23-5.83-38.67-15.81-56.57-26.56C603.6,3130.31,554.39,3094,506,3056.36c-84.64-65.82-166.25-135.27-247-205.8C233.11,2827.85,207.22,2805,178.25,2779.61Zm675.83-68H834.14c-20,0-20.15,0-20.28,20.17-.5,78.24-1.83,156.44-11.39,234.23-5.17,42-13.56,83-33.55,121.27-14.29,27.36-21.24,57.8-30.06,87.35-1.92,6.42-.64,9,6,11.26,30.92,10.44,57.7,28.53,84.16,47,58.75,41.08,113.57,87.1,168.11,133.52,105.51,89.79,206.36,184.68,307,279.73q87.46,82.57,172.71,167.46c11.09,11,14.32,6.17,19.52-3.83,20.57-39.57,41.42-79,62.2-118.46,34.48-65.49,68.84-131.06,103.66-196.37,4.45-8.35,3-13.39-3.28-19.73-82.56-83.19-163.75-167.72-244.53-252.63-53.31-56-107.25-111.47-160.7-167.37-21-21.94-41.17-44.6-62.05-66.63-24.48-25.82-48-52.78-74.26-76.64-62.83-57-127-112.57-190.7-168.68C905.9,2725,887.42,2701.27,854.08,2711.66ZM3909,3110.57c-4.8,3.79-6.73,5.08-8.39,6.66q-105.95,100.31-211.82,200.71c-50.9,48.41-101.46,97.15-152.22,145.7q-29.83,28.54-59.86,56.87-103.84,98.39-207.82,196.64c-6.48,6.11-6.09,9.77,0,15.93q133.1,133.8,265.65,268.13c6.83,6.92,11.25,7.77,18.32.33,23.84-25.13,48.72-49.23,72.57-74.39,25.08-26.46,47.63-55.42,76.68-78.15,55.21-43.21,116-71.67,187.29-73.59,19.52-.53,19.56-.12,19.56-19.37q0-314.12,0-628.24Zm-1596.08,1246c98.31,0,196.62-.2,294.92.25,12.49.06,17-3.37,15.91-16.12q-4.75-55.94-8.15-112c-4.79-77.11-12.26-154-20.12-230.8-.66-6.46-1.47-11.43-8.07-15.07q-78.57-43.24-156.76-87.19c-3.88-2.17-7-4.16-11.58-1-18.15,12.39-39.11,14.28-60.07,13.82-56.43-1.25-112.53-7.06-168.31-15.36-12-1.78-19.49.74-27.48,9.07-38.8,40.4-78.12,80.31-117.14,120.5-57.86,59.6-115.52,119.4-173.59,178.8-6.92,7.08-7.08,11.35,0,18.43Q1935.14,4283,1997,4347c6.87,7.11,14.11,9.69,23.84,9.66C2118.18,4356.42,2215.54,4356.53,2312.9,4356.53ZM2635,4009.4c3,35.66,5.5,69.11,8.78,102.48,7.55,76.88,14,153.84,16.51,231.06.4,12.2,5.54,13.73,15.61,13.72q596.89-.24,1193.78-.24c3.77,0,8.61,2.2,13.54-5.33-3.77-3.57-8.7-5.91-12.42-9.5q-105.89-102.51-211.53-205.28c-35.41-34.39-71-68.64-106.1-103.31-6.69-6.61-10.85-7.63-18.49-.73-43,38.79-87.28,75.83-136.67,106.6-88.92,55.4-184.81,76.28-288.67,62.63-120.54-15.84-230.44-61.14-336.1-118.95C2728.33,4058,2682.76,4034.63,2635,4009.4ZM1311.17,4356.53c28.49,0,57.07-1.38,85.43.48,19,1.25,30.7-6.68,42.28-20,41.65-48,84-95.39,126.23-142.81,50.49-56.64,101.32-113,151.79-169.63,74.44-83.56,148.57-167.38,223.21-250.77,6.55-7.32,7.1-11.23-.27-18.07-23.65-21.95-47-44.24-69.81-67.05-61.75-61.76-124.73-122.33-184.19-186.34-9.13-9.83-12.58-8-18.27,3.1q-45.91,89.25-93.09,177.84c-73.33,137.8-146,276-221.62,412.53-46.41,83.83-91.83,168.25-144.51,248.44-2,3-6.24,6-4.27,9.84,2.37,4.6,7.69,2.34,11.67,2.36C1247.55,4356.61,1279.36,4356.53,1311.17,4356.53Zm1147.2-1192.1c1-5.6-3.74-8.41-9.08-11.25-19.79-10.52-38.36-23.06-53.79-39.29q-119.63-125.83-238.56-252.31c-6.72-7.13-11.19-7.69-18.37-.43-19.34,19.56-39.59,38.22-59.23,57.5q-105.17,103.26-210.16,206.69c-4.4,4.33-8.62,8.7-11.5,14.35-12.74,24.93-25.3,50-38.77,74.51-4.8,8.75-3.39,13.94,3.43,20.81,49.15,49.52,98.73,98.6,147.07,148.94,47.35,49.3,96.22,97.14,144.43,145.61,24,24.15,23.5,23.68,45.94-1.91q75.5-86.09,151.95-171.35c41.64-46.73,83.74-93,125.12-140C2449.28,3202.17,2456.41,3185,2458.37,3164.44ZM1792,2711.66q-105.35,0-210.71-.1c-8.41,0-15.3,1.37-21.75,7.78q-57.52,57.2-115.89,113.53c-7.28,7-6.93,10.89,0,17.89,43.52,43.69,86.41,88,129.79,131.86,57.08,57.68,114.48,115,171.6,172.69,17.69,17.85,35,36,52.22,54.39,5.84,6.23,9.49,6.32,13.44-1.63,7-14,14.25-27.87,21.68-41.64,9.4-17.41,16.75-35.64,31.68-50.13C1938,3044.57,2011,2972,2084.47,2899.86c15.22-15,30.36-30,46.26-44.24,8.55-7.64,9.63-12.85,1-21.7-36-37-71.5-74.67-106.84-112.39-6.7-7.15-13.75-10.13-23.62-10.07C1931.52,2711.83,1861.76,2711.66,1792,2711.66Zm799.56,1261.88c.26-5.61.91-9.29.52-12.85-5.93-55.08-11.07-110.27-18.27-165.19-7.82-59.72-14.11-119.53-15.2-179.72-1.39-76.36-.49-152.67,4.64-229,3.88-57.69,9.13-115.19,16.59-172.49,1.31-10-1.93-13.34-11-15.6-30.41-7.58-60.26-17.12-88.77-30.28-9.46-4.37-12.43-1.86-13.64,8-2.2,18-10.87,33.38-22.58,46.77-29,33.19-58.43,66.06-87.82,98.93q-100.49,112.41-201.3,224.54c-9.68,10.72-9.24,17.16,1.2,27.51q112.22,111.24,223.11,223.81c20.61,20.9,41.72,42.42,48.69,72.25,2.59,11.1,7.89,17.13,17,22.13,23.72,13,47.16,26.45,70.81,39.55C2540.37,3945.6,2565.25,3959.12,2591.57,3973.54ZM492.76,2711.66H210.69c-32.45,0-31.29.06-32.91,32.1-.88,17.41,6.14,28.26,18.37,38.72,41.81,35.74,83.13,72.06,124.7,108.09,88.9,77.07,179.43,152.13,275.38,220.36,35.57,25.29,71.8,49.79,112.76,66,15,5.94,17.48,4.7,21.95-10.82,8.54-29.66,17.43-59.21,30.23-87.35,7.27-16,15.2-31.55,19.37-48.84,17.92-74.31,19.72-150.18,22.11-226,.81-25.62-.82-51.37,1-76.88,1-13.16-2.18-15.71-14.62-15.65C690.3,2711.87,591.53,2711.66,492.76,2711.66ZM1799.37,3229c-.52-5.6-4.44-8-7.32-11-32-33.11-64.62-65.55-96.7-98.55-85-87.45-171.3-173.67-256.7-260.75-8.26-8.42-12.55-8.48-21-.11-54.56,54.15-107.64,109.82-164.18,162-8.23,7.59-6.31,12.64.56,19.76,40.86,42.31,81.32,85,122,127.53q34.91,36.53,69.94,72.93,108.66,112.7,217.29,225.44c7.35,7.65,10.59,6,15.07-2.69q58-112.61,116.6-224.93C1796.63,3235.3,1798.07,3231.81,1799.37,3229Zm693.73-517.34q-94,0-188,0c-7.71,0-14.58.42-20.8,6.58q-60.17,59.64-121,118.56c-6.44,6.24-7.38,10.4-.57,17.29,22.68,22.94,44.79,46.46,67,69.86,49.3,52,98.31,104.23,147.91,155.91,17.36,18.09,33.51,37.49,54.88,51.53,43,28.29,90.48,45.47,140.07,57.8,8.49,2.11,10.48-.49,11.66-8.45,8.51-57.19,18.31-114.16,30.73-170.65,4.17-19,4.31-19-15.73-21.64-21.65-2.9-33.8-15.88-35.52-37.76a67.57,67.57,0,0,1,5.87-33.26c4.43-10,6.35-21.25-1.72-29.53-13-13.35-10.43-23.58,3.1-33.71a16.93,16.93,0,0,0,3.7-4.31c6.84-10.37,14.28-13.6,25.83-5.42,9.46,6.7,19.94,8.53,28.84-3,4.9-6.34,11.87-6.32,17,0,6.65,8.23,9.11,7.24,12.2-2.75,11.48-37.17,23.71-74.1,35.72-111.1,5-15.35,4.73-15.88-11.63-15.89Q2587.81,2711.6,2493.09,2711.66ZM3909,4071.65c0-89.23-.35-178.47.35-267.7.12-14.82-4.54-18.38-18.58-18.13-84.95,1.57-153.8,39.21-211.17,97.94-39.74,40.68-77.75,83.15-118.61,122.79-8.71,8.45-8.25,13.29.26,21.34Q3627.9,4091,3693.7,4155q98.22,95,196.26,190.16c4.46,4.31,8.16,13,15.65,9.7,6.42-2.84,3.24-11.09,3.25-16.9Q3909.11,4204.79,3909,4071.65ZM2127.91,3561.1c-2.2-2.89-4-5.61-6.12-8-9-9.76-17.89-19.62-27.21-29.06q-138.45-140.28-276.91-280.55c-7.22-7.34-10.91-6.55-15.45,2.22Q1743.41,3359.49,1684.1,3473c-3.76,7.19-2.59,11.65,2.91,17.29,84.75,87,171.12,172.28,257.76,257.34,7.87,7.73,12.46,7.14,19.24-.74,16.7-19.38,34.11-38.15,51.11-57.28q53.8-60.58,107.45-121.3C2124.4,3566.21,2125.89,3563.84,2127.91,3561.1Zm29.53,330.78c-.88-4.29-4.18-5-7.39-5.59-11.17-2.14-22.45-3.79-33.52-6.36-21.5-5-43.75-6.48-62.23-21.84-30.3-25.19-60.5-50.42-88.19-78.44-7.59-7.69-12.49-7.84-19.22.49-8.34,10.31-17.62,19.86-26.45,29.78Q1817.8,3925.21,1715,4040.36c-7.22,8.05-6.34,12.76.76,19.92q65.65,66.25,130.51,133.28c7.29,7.55,11.48,8.2,19,.19,31.52-33.55,64.55-65.63,96.26-99,52-54.73,105.37-108.08,158.06-162.11,11.26-11.54,22.11-23.48,33.13-35.26C2154.34,3895.63,2155.81,3893.79,2157.45,3891.88ZM1988.59,4356c-.6-6.06-4.21-8-6.74-10.63-27-28-54.59-55.45-81.56-83.51-59.19-61.6-119.54-122.09-179.48-183-20.48-20.81-20.53-20.7-39.83.89q-111.9,125.12-223.67,250.36c-6.94,7.81-15.3,14.92-20.31,25.87ZM908.88,2714.36c38.16,33.94,75.43,66.83,112.4,100.05,41.6,37.39,85.71,72,124.83,112.12,28.14,28.85,55.46,58.52,82.8,88.15,6.22,6.74,10.55,7.58,16.88.27,7.13-8.23,15.29-15.57,23.08-23.23Q1340.42,2921.35,1412,2851c4.37-4.31,11.09-7.52,3.24-15.7-41.85-43.61-86-84.37-137.54-116.53-8.38-5.23-17.06-7.23-26.93-7.21q-163.06.32-326.11.2C920.07,2711.73,915.24,2710.41,908.88,2714.36ZM2348.66,3898c16.62-.27,33.23.46,49.45-4.45,21.29-6.44,25.29-14.86,15.58-34.56-8.27-16.78-20-31.06-33.08-44.25q-37.14-37.37-74.28-74.74-81.53-82.56-162.88-165.3c-5.27-5.36-9-5-13.92.52q-79.29,89.37-159,178.37c-6.15,6.86-6.24,11.66.54,17.78,15.84,14.3,31.12,29.22,47,43.48,29.67,26.64,58.92,54.17,102.25,56.06,5.17.23,10.3,1.55,15.41,2.53C2206.09,3887.08,2277.11,3894.85,2348.66,3898Zm1563-886.57-3.46,5.14a61.57,61.57,0,0,0,.72-6.71c0-95-.17-189.94.27-284.91.06-12.66-6.14-13.47-15.85-13.45-87.37.19-174.75.08-262.12.2-4.51,0-11-2.51-13.15,2-2.57,5.55,4,8.86,7.42,12.39,39.89,41.33,80.05,82.39,119.86,123.8,27.62,28.73,53.91,58.79,82.44,86.57C3854.66,2962.67,3883.64,2986.59,3911.69,3011.48Zm-1284.8-8.83c-1.06,3.38-2.14,6-2.73,8.8-23.21,109.95-39.9,220.92-48.54,332.92-5.86,76-6.63,152.28-7.4,228.58-1,102.86,14.47,204,24.47,305.76,6.9,70.19,15.61,140.21,21.77,210.47,5.83,66.5,11.95,133,15.37,199.73.8,15.59,2,31.19,2.45,46.82a112.64,112.64,0,0,0,1.43,12.68c.94,6.47,5.07,8.46,11.18,8,6.72-.5,7.26-5.13,6.94-10.12-1.77-27.89-3.54-55.77-5.52-83.65-3-41.57-5.47-83.18-9.26-124.68-5.9-64.58-12.54-129.1-19.19-193.61-5.72-55.57-10.7-111.25-18.2-166.58a1415.51,1415.51,0,0,1-13-164.18c-2.22-121,2-241.66,16.4-362,9.14-76.25,20.68-152,36.85-227.07C2642.65,3012,2643.3,3003.55,2626.89,3002.65ZM1289.83,2712.52c.45,1.72.39,3,.93,3.34,49.09,31.33,91.26,70.73,131.07,112.81,6.78,7.16,10.19,2.43,14.72-2q52.24-51.29,104.54-102.51c3.16-3.11,7.89-5.37,8.24-11.62Zm742.72-.86c2.12,8.6,6.87,12.64,11,17,32.71,34.32,65.65,68.41,98,103,5.84,6.24,8.95,4.22,13.65-.4q54.79-53.84,109.71-107.54c2.77-2.72,8.24-5.19,5.66-10.07-1.91-3.61-6.92-2-10.56-2q-88.23-.12-176.45-.06Zm670.57,230.93c-.56-7.46-4.42-16.22-7.85-25-5.09-13.08-3.64-25,4.59-36.33,3.88-5.33,9.14-10.65,1.06-16.78-7.13-5.42-10.73-17.65-24.31-9.19-10.83,6.75-23.33,8.83-33.76-2.55-3-3.3-6.17-4.39-9.6-.61-11.33,12.47-23.82,8.76-36.29,2.39-4-2-7.27-3.59-11.76-.71-13.38,8.59-15.66,16.85-7.64,30.36,5.62,9.46,7.69,19.25,3.67,29.93-2.34,6.21-4.45,12.52-6.42,18.86-8,25.85,4.61,45,31.42,46.71,10.3.66,19.86,2.23,27.25,10,2.75,2.88,4.8,4.19,8,.61,8-8.9,18.63-9.89,29.82-10.74C2691.77,2977.91,2703.54,2964.49,2703.11,2942.59ZM2667,2848.12c10.23-2.73,18.29-6.59,21.17-16,11.2-36.76,22.29-73.55,35.59-109.63,1.24-3.37,3.83-7.75-1.26-9.78-4.35-1.73-9.62-2.35-13,2.24-1.91,2.59-2.91,5.94-4,9.06-9.81,29.25-19.94,58.39-29.09,87.85C2672.95,2823.29,2668,2834.61,2667,2848.12Z" transform="translate(-47.19 -85.85)"/><path class="cls-2" d="M169.83,4365c40.27,3.4,80.62,2.28,120.95,2.28q1801.51,0,3603,0c2.85,0,5.75-.36,8.54.06,13.53,2,17.72-3.19,17.71-17.16q-.52-784.29-.6-1568.57c0-23.17-1.86-46.43-1.61-69.67.08-7.82-2.91-11.48-10.87-11.09-5.21.25-10.45,0-15.67,0h-3707c-5.69,0-11.39-.18-17.08-.27.62-.88-1.44-3,1.43-2.88,3.79.12,7.6,0,11.4,0q1864.73,0,3729.47-.33c11.83,0,13.71,2.71,13.7,14q-.51,822.68,0,1645.35c0,11.28-1.88,14-13.7,14Q2044.75,4370.24,180,4370c-3.67,0-13.18,7-12.82-5.3A11.3,11.3,0,0,0,169.83,4365Z" transform="translate(-47.19 -85.85)"/><path class="cls-3" d="M169.83,4365a11.3,11.3,0,0,1-2.63-.26V2703.46c3.72,3.93,2.78,8.88,2.78,13.54q0,822.58,0,1645.16C169.94,4363.1,169.86,4364,169.83,4365Z" transform="translate(-47.19 -85.85)"/><path class="cls-2" d="M735.82,4356.53q-217.24,0-434.48,0c-19.27,0-19.78-.67-20.13-20-1.42-78.13,13-153.73,36.24-227.94,17.15-54.77,32.06-110.37,51.83-164.17,24-65.27,60.86-124.35,98.25-182.7,38.65-60.32,78.75-119.71,122.75-176.35,16.29-21,36-38.06,59.24-50.36,34-18,47.4-47.67,50.3-83.66,5.13-63.73,7.29-127.76,20.07-190.67,3.68-18.11,8.1-36.09,11.26-54.29,2.07-11.9,7.44-13.32,17.54-8.78,30.05,13.5,57.59,31.16,84.18,50.33,72,51.93,139.55,109.35,206,168.15q103.92,92,204.63,187.38,115,108.4,227.74,219.15c9.08,9,10.15,15.71,4.05,26.83-48.58,88.62-96.26,177.73-144.86,266.35-39.92,72.8-80.7,145.11-124.91,215.45-11.34,18-23.76,26.2-46.66,26C1017.87,4355.87,876.84,4356.53,735.82,4356.53Z" transform="translate(-47.19 -85.85)"/><path class="cls-2" d="M3170.52,2711.66c136.25,0,272.51.17,408.76-.25,14.44,0,24.12,3.86,33.92,15.35,22.44,26.32,47.91,50,71.75,75.12,62.34,65.79,125.8,130.51,188.75,195.73,9.88,10.23,19.23,21,29.13,31.19,4.26,4.4,6.37,9.12,6.2,15.24-.24,8.54-1.11,17.25.17,25.6,3,19.62-5.54,32.9-19.78,45.31-24.3,21.18-47.6,43.51-70.95,65.76-51.53,49.09-102.72,98.54-154.25,147.63Q3549.32,3437.79,3434.15,3547q-83.07,78.9-166.18,157.76c-13.8,13.11-13.92,13.23-27.06.06-85.16-85.38-171.06-170-255.21-256.39-66.92-68.68-135.49-135.7-202.38-204.4-20.36-20.91-44.81-31.37-73.39-32.79-25.63-1.28-50.79-6-76.17-9.11-10.68-1.3-14.61-6.13-12.81-17.12,9.88-60.33,19.6-120.66,32.77-180.4,2.09-9.5,5.85-13.52,15.08-15.29,40.14-7.73,53-31.58,37.67-70-5.69-14.27-5.16-26.93,5.79-38,7.63-7.74,6-14.4-1.47-20.45-13.71-11.17-15.21-24.31-9.44-40.49q16.74-46.89,31.35-94.54c3.43-11.11,9.17-14.3,20.5-14.27Q2961.86,2712,3170.52,2711.66Z" transform="translate(-47.19 -85.85)"/><path class="cls-2" d="M3172.57,4194.69A722,722,0,0,1,2884.25,4126c-81.65-38.25-161.4-80.34-240.42-123.78-7.93-4.36-11.26-9.57-12.2-18.77-6.85-66.41-14.56-132.74-21.68-199.13-5.3-49.44-12.41-98.71-12.52-148.62-.07-29.86-2.6-59.73-2.15-89.57,1.42-93.36,4.7-186.65,16.22-279.44,1.87-15,3.8-30.07,5.15-45.16.83-9.33,4.93-12,14-10.28,29.34,5.62,59,8.88,88.77,11.14,21,1.59,39.36,11,54.15,25.88,151.33,152.1,303.13,303.74,453.47,456.81,98.12,99.91,197.65,198.41,296,298.07,12.92,13.09,13.06,13.12.21,25.27-49.16,46.45-101.87,88.39-162,119.61C3302.39,4178.59,3240.18,4197.76,3172.57,4194.69Z" transform="translate(-47.19 -85.85)"/><path class="cls-2" d="M178.25,2779.61c29,25.43,54.86,48.24,80.84,70.94,80.7,70.54,162.32,140,247,205.8,48.35,37.6,97.56,73.95,150.12,105.51,17.9,10.75,36.34,20.73,56.57,26.56,8.46,2.44,11,6.15,8.79,15.38-18,75.4-27.32,152-30.14,229.4-.55,15-3.34,30.21-6.85,44.9-3.57,14.92-9.93,29.66-24.16,37.3-49.71,26.7-83.62,68.7-115.32,113.78-59,83.93-115.65,169.17-163,260.42-23.85,46-36.53,95.58-51.55,144.52-17.12,55.76-36.92,110.79-47.48,168.39-8.39,45.74-14.23,91.75-10.45,138.4.92,11.34-2.07,16.38-14.59,15.87-21.81-.89-43.7-.82-65.51,0-11.66.43-15.52-4.12-14.29-15a88.78,88.78,0,0,0,.06-10q0-765,0-1530.07C178.25,2795.67,178.25,2789.57,178.25,2779.61Z" transform="translate(-47.19 -85.85)"/><path class="cls-2" d="M854.08,2711.66c33.34-10.38,51.82,13.35,72.61,31.67,63.67,56.11,127.87,111.64,190.7,168.68,26.28,23.86,49.78,50.82,74.26,76.64,20.88,22,41.08,44.69,62.05,66.63,53.44,55.91,107.39,111.34,160.7,167.37,80.79,84.92,162,169.44,244.53,252.63,6.3,6.34,7.74,11.38,3.28,19.73-34.83,65.31-69.18,130.87-103.66,196.37-20.78,39.47-41.63,78.89-62.2,118.46-5.2,10-8.44,14.8-19.52,3.83q-85.49-84.61-172.71-167.46c-100.68-95.06-201.53-189.94-307-279.73C942.54,3320.07,887.73,3274.05,829,3233c-26.46-18.51-53.24-36.59-84.16-47-6.6-2.23-7.87-4.84-6-11.26,8.82-29.55,15.77-60,30.06-87.35,20-38.27,28.39-79.23,33.55-121.27,9.56-77.79,10.89-156,11.39-234.23.13-20.15.28-20.15,20.28-20.17Z" transform="translate(-47.19 -85.85)"/><path class="cls-2" d="M3909,3110.57v17.23q0,314.12,0,628.24c0,19.25,0,18.85-19.56,19.37-71.27,1.92-132.08,30.38-187.29,73.59-29,22.73-51.6,51.69-76.68,78.15-23.85,25.16-48.73,49.26-72.57,74.39-7.06,7.45-11.49,6.59-18.32-.33Q3402,3866.87,3268.9,3733.08c-6.12-6.16-6.51-9.82,0-15.93q104.12-98.1,207.82-196.64,30-28.39,59.86-56.87c50.76-48.55,101.33-97.3,152.22-145.7q105.72-100.55,211.82-200.71C3902.26,3115.65,3904.18,3114.36,3909,3110.57Z" transform="translate(-47.19 -85.85)"/><path class="cls-2" d="M2312.9,4356.53c-97.36,0-194.72-.11-292.07.17-9.73,0-17-2.55-23.84-9.66q-61.89-64-124.57-127.19c-7-7.09-6.88-11.35,0-18.43,58.07-59.4,115.73-119.2,173.59-178.8,39-40.19,78.34-80.1,117.14-120.5,8-8.32,15.51-10.85,27.48-9.07,55.77,8.3,111.88,14.12,168.31,15.36,21,.46,41.92-1.43,60.07-13.82,4.59-3.13,7.7-1.14,11.58,1q78.28,43.77,156.76,87.19c6.6,3.63,7.41,8.6,8.07,15.07,7.86,76.83,15.34,153.7,20.12,230.8q3.48,56,8.15,112c1.08,12.75-3.42,16.17-15.91,16.12C2509.51,4356.33,2411.21,4356.53,2312.9,4356.53Z" transform="translate(-47.19 -85.85)"/><path class="cls-2" d="M2635,4009.4c47.77,25.23,93.34,48.58,138.25,73.15,105.66,57.8,215.56,103.11,336.1,118.95,103.86,13.65,199.75-7.23,288.67-62.63,49.39-30.77,93.69-67.81,136.67-106.6,7.64-6.89,11.79-5.87,18.49.73,35.13,34.67,70.69,68.92,106.1,103.31Q3765,4239,3870.79,4341.59c3.71,3.6,8.65,5.93,12.42,9.5-4.93,7.52-9.77,5.33-13.54,5.33q-596.89.17-1193.78.24c-10.08,0-15.21-1.52-15.61-13.72-2.51-77.22-9-154.18-16.51-231.06C2640.49,4078.51,2638,4045.06,2635,4009.4Z" transform="translate(-47.19 -85.85)"/><path class="cls-2" d="M1311.17,4356.53c-31.81,0-63.62.08-95.43-.1-4,0-9.3,2.24-11.67-2.36-2-3.83,2.27-6.79,4.27-9.84,52.67-80.19,98.09-164.61,144.51-248.44,75.62-136.57,148.29-274.73,221.62-412.53q47.15-88.6,93.09-177.84c5.69-11.06,9.14-12.92,18.27-3.1,59.46,64,122.44,124.58,184.19,186.34,22.81,22.81,46.16,45.1,69.81,67.05,7.37,6.84,6.82,10.75.27,18.07-74.63,83.38-148.77,167.21-223.21,250.77-50.47,56.66-101.3,113-151.79,169.63-42.28,47.43-84.58,94.84-126.23,142.81-11.58,13.34-23.24,21.27-42.28,20C1368.23,4355.15,1339.65,4356.53,1311.17,4356.53Z" transform="translate(-47.19 -85.85)"/><path class="cls-2" d="M2458.37,3164.44c-2,20.58-9.09,37.73-21.52,51.85-41.37,47-83.48,93.28-125.12,140q-76.17,85.49-151.95,171.35c-22.45,25.59-21.93,26.06-45.94,1.91-48.21-48.48-97.08-96.31-144.43-145.61-48.34-50.34-97.92-99.42-147.07-148.94-6.82-6.87-8.23-12.06-3.43-20.81,13.47-24.54,26-49.57,38.77-74.51,2.89-5.65,7.1-10,11.5-14.35q105.08-103.35,210.16-206.69c19.63-19.28,39.88-37.94,59.23-57.5,7.18-7.26,11.65-6.7,18.37.43Q2276,2988,2395.5,3113.9c15.43,16.23,34,28.76,53.79,39.29C2454.63,3156,2459.36,3158.83,2458.37,3164.44Z" transform="translate(-47.19 -85.85)"/><path class="cls-2" d="M1792,2711.66c69.76,0,139.52.17,209.28-.19,9.87-.05,16.92,2.93,23.62,10.07,35.34,37.72,70.79,75.34,106.84,112.39,8.61,8.85,7.53,14.05-1,21.7-15.9,14.21-31,29.28-46.26,44.24C2011,2972,1938,3044.57,1864.1,3116.29c-14.92,14.49-22.28,32.72-31.68,50.13-7.43,13.77-14.72,27.63-21.68,41.64-3.95,8-7.6,7.87-13.44,1.63-17.18-18.34-34.53-36.53-52.22-54.39-57.11-57.65-114.52-115-171.6-172.69-43.38-43.84-86.27-88.16-129.79-131.86-7-7-7.33-10.87,0-17.89q58.44-56.26,115.89-113.53c6.45-6.41,13.34-7.8,21.75-7.78Q1686.65,2711.81,1792,2711.66Z" transform="translate(-47.19 -85.85)"/><path class="cls-2" d="M2591.57,3973.54c-26.31-14.42-51.2-27.94-76-41.66-23.65-13.1-47.09-26.59-70.81-39.55-9.14-5-14.44-11-17-22.13-7-29.83-28.08-51.35-48.69-72.25q-110.94-112.52-223.11-223.81c-10.44-10.35-10.88-16.8-1.2-27.51q101.07-111.89,201.3-224.54c29.39-32.87,58.79-65.74,87.82-98.93,11.71-13.39,20.38-28.8,22.58-46.77,1.2-9.82,4.18-12.32,13.64-8,28.51,13.16,58.35,22.7,88.77,30.28,9.06,2.26,12.3,5.55,11,15.6-7.45,57.3-12.71,114.8-16.59,172.49-5.13,76.3-6,152.61-4.64,229,1.1,60.19,7.38,120,15.2,179.72,7.19,54.92,12.34,110.11,18.27,165.19C2592.47,3964.25,2591.83,3967.93,2591.57,3973.54Z" transform="translate(-47.19 -85.85)"/><path class="cls-2" d="M492.76,2711.66c98.77,0,197.54.21,296.31-.26,12.44-.06,15.58,2.49,14.62,15.65-1.86,25.52-.23,51.26-1,76.88-2.39,75.79-4.19,151.66-22.11,226-4.17,17.28-12.11,32.86-19.37,48.84-12.8,28.15-21.7,57.69-30.23,87.35-4.47,15.52-6.93,16.77-21.95,10.82-41-16.2-77.2-40.7-112.76-66-95.94-68.23-186.48-143.29-275.38-220.36-41.56-36-82.88-72.35-124.7-108.09-12.23-10.45-19.24-21.3-18.37-38.72,1.62-32,.46-32.1,32.91-32.1Z" transform="translate(-47.19 -85.85)"/><path class="cls-2" d="M1799.37,3229c-1.3,2.81-2.74,6.3-4.47,9.63q-58.34,112.44-116.6,224.93c-4.48,8.69-7.72,10.34-15.07,2.69q-108.45-112.9-217.29-225.44-35.07-36.37-69.94-72.93c-40.64-42.53-81.1-85.22-122-127.53-6.88-7.12-8.8-12.17-.56-19.76,56.53-52.14,109.62-107.81,164.18-162,8.44-8.37,12.72-8.32,21,.11,85.39,87.08,171.68,173.3,256.7,260.75,32.08,33,64.73,65.44,96.7,98.55C1794.93,3221,1798.84,3223.4,1799.37,3229Z" transform="translate(-47.19 -85.85)"/><path class="cls-2" d="M2493.09,2711.66q94.72,0,189.44,0c16.36,0,16.62.54,11.63,15.89-12,37-24.24,73.94-35.72,111.1-3.08,10-5.54,11-12.2,2.75-5.11-6.32-12.08-6.34-17,0-8.9,11.52-19.38,9.69-28.84,3-11.55-8.18-19-4.95-25.83,5.42a16.93,16.93,0,0,1-3.7,4.31c-13.53,10.13-16.1,20.36-3.1,33.71,8.06,8.28,6.15,19.53,1.72,29.53a67.57,67.57,0,0,0-5.87,33.26c1.71,21.88,13.87,34.85,35.52,37.76,20,2.69,19.91,2.66,15.73,21.64-12.41,56.49-22.22,113.46-30.73,170.65-1.18,8-3.17,10.56-11.66,8.45-49.59-12.32-97-29.51-140.07-57.8-21.36-14-37.52-33.45-54.88-51.53-49.6-51.68-98.61-103.94-147.91-155.91-22.21-23.41-44.31-46.92-67-69.86-6.81-6.88-5.87-11,.57-17.29q60.85-58.95,121-118.56c6.22-6.16,13.09-6.59,20.8-6.58Q2399.09,2711.73,2493.09,2711.66Z" transform="translate(-47.19 -85.85)"/><path class="cls-2" d="M3909,4071.65q0,133.14-.12,266.28c0,5.81,3.17,14.06-3.25,16.9-7.49,3.32-11.19-5.39-15.65-9.7Q3791.69,4250.2,3693.7,4155q-66-63.81-132.47-127.08c-8.51-8-9-12.89-.26-21.34,40.86-39.64,78.86-82.11,118.61-122.79,57.37-58.73,126.22-96.37,211.17-97.94,14-.26,18.7,3.31,18.58,18.13C3908.63,3893.18,3909,3982.42,3909,4071.65Z" transform="translate(-47.19 -85.85)"/><path class="cls-2" d="M2127.91,3561.1c-2,2.74-3.51,5.11-5.34,7.18q-53.68,60.69-107.45,121.3c-17,19.13-34.41,37.89-51.11,57.28-6.78,7.88-11.37,8.47-19.24.74-86.64-85.06-173-170.39-257.76-257.34-5.5-5.64-6.67-10.1-2.91-17.29q59.36-113.45,118.11-227.21c4.54-8.77,8.23-9.56,15.45-2.22q138.27,140.46,276.91,280.55c9.32,9.44,18.22,19.3,27.21,29.06C2124,3555.49,2125.71,3558.21,2127.91,3561.1Z" transform="translate(-47.19 -85.85)"/><path class="cls-2" d="M2157.45,3891.88c-1.64,1.91-3.11,3.74-4.71,5.45-11,11.78-21.87,23.71-33.13,35.26-52.7,54-106.11,107.38-158.06,162.11-31.71,33.41-64.75,65.48-96.26,99-7.52,8-11.72,7.36-19-.19q-64.78-67.1-130.51-133.28c-7.09-7.16-8-11.86-.76-19.92q103.07-114.9,205.43-230.44c8.83-9.92,18.11-19.47,26.45-29.78,6.73-8.32,11.63-8.17,19.22-.49,27.69,28,57.9,53.26,88.19,78.44,18.48,15.36,40.73,16.87,62.23,21.84,11.07,2.56,22.35,4.22,33.52,6.36C2153.27,3886.91,2156.57,3887.6,2157.45,3891.88Z" transform="translate(-47.19 -85.85)"/><path class="cls-2" d="M1988.59,4356H1437c5-10.94,13.37-18.06,20.31-25.87Q1568.84,4204.7,1681,4079.79c19.3-21.59,19.35-21.69,39.83-.89,59.94,60.88,120.29,121.37,179.48,183,27,28.07,54.58,55.48,81.56,83.51C1984.38,4348,1988,4350,1988.59,4356Z" transform="translate(-47.19 -85.85)"/><path class="cls-2" d="M908.88,2714.36c6.36-4,11.19-2.63,15.74-2.64q163.06-.13,326.11-.2c9.87,0,18.55,2,26.93,7.21,51.54,32.16,95.69,72.92,137.54,116.53,7.85,8.19,1.13,11.4-3.24,15.7q-71.48,70.45-143.11,140.76c-7.78,7.66-15.95,15-23.08,23.23-6.33,7.32-10.67,6.47-16.88-.27-27.33-29.63-54.65-59.3-82.8-88.15-39.11-40.1-83.23-74.73-124.83-112.12C984.31,2781.19,947,2748.31,908.88,2714.36Z" transform="translate(-47.19 -85.85)"/><path class="cls-2" d="M2348.66,3898c-71.54-3.2-142.57-11-212.92-24.56-5.11-1-10.25-2.31-15.41-2.53-43.33-1.9-72.58-29.43-102.25-56.06-15.88-14.26-31.16-29.18-47-43.48-6.78-6.12-6.69-10.93-.54-17.78q79.79-88.93,159-178.37c4.94-5.56,8.65-5.89,13.92-.52q81.32,82.77,162.88,165.3,37,37.49,74.28,74.74c13.11,13.19,24.81,27.47,33.08,44.25,9.71,19.7,5.7,28.12-15.58,34.56C2381.89,3898.5,2365.27,3897.78,2348.66,3898Z" transform="translate(-47.19 -85.85)"/><path class="cls-2" d="M3911.69,3011.48c-28-24.89-57-48.81-83.87-74.95-28.53-27.78-54.82-57.84-82.44-86.57-39.81-41.4-80-82.47-119.86-123.8-3.41-3.53-10-6.85-7.42-12.39,2.1-4.53,8.64-2,13.15-2,87.37-.13,174.75,0,262.12-.2,9.71,0,15.91.79,15.85,13.45-.44,95-.24,189.94-.27,284.91a61.57,61.57,0,0,1-.72,6.71Z" transform="translate(-47.19 -85.85)"/><path class="cls-2" d="M2626.89,3002.65c16.41.9,15.77,9.32,13.06,21.9-16.17,75-27.71,150.82-36.85,227.07-14.42,120.3-18.62,241-16.4,362a1415.51,1415.51,0,0,0,13,164.18c7.5,55.33,12.48,111,18.2,166.58,6.65,64.51,13.29,129,19.19,193.61,3.79,41.5,6.31,83.11,9.26,124.68,2,27.87,3.75,55.76,5.52,83.65.32,5-.22,9.62-6.94,10.12-6.1.45-10.24-1.53-11.18-8a112.64,112.64,0,0,1-1.43-12.68c-.47-15.63-1.65-31.23-2.45-46.82-3.42-66.72-9.54-133.22-15.37-199.73-6.16-70.25-14.87-140.27-21.77-210.47-10-101.75-25.51-202.9-24.47-305.76.77-76.31,1.54-152.57,7.4-228.58,8.64-112,25.33-223,48.54-332.92C2624.74,3008.68,2625.82,3006,2626.89,3002.65Z" transform="translate(-47.19 -85.85)"/><path class="cls-2" d="M1289.83,2712.52h259.5c-.35,6.25-5.08,8.51-8.24,11.62q-52.15,51.37-104.54,102.51c-4.53,4.45-7.94,9.18-14.72,2-39.81-42.08-82-81.48-131.07-112.81C1290.22,2715.51,1290.28,2714.23,1289.83,2712.52Z" transform="translate(-47.19 -85.85)"/><path class="cls-2" d="M2032.55,2711.66h51.08q88.23,0,176.45.06c3.64,0,8.65-1.65,10.56,2,2.58,4.87-2.89,7.34-5.66,10.07q-54.76,53.87-109.71,107.54c-4.71,4.62-7.82,6.64-13.65.4-32.39-34.61-65.34-68.71-98-103C2039.42,2724.3,2034.67,2720.26,2032.55,2711.66Z" transform="translate(-47.19 -85.85)"/><path class="cls-2" d="M2703.11,2942.59c.43,21.91-11.35,35.32-31.82,36.87-11.19.85-21.84,1.84-29.82,10.74-3.2,3.57-5.25,2.27-8-.61-7.39-7.73-17-9.31-27.25-10-26.81-1.72-39.45-20.85-31.42-46.71,2-6.34,4.08-12.65,6.42-18.86,4-10.67,2-20.47-3.67-29.93-8-13.51-5.74-21.76,7.64-30.36,4.49-2.88,7.75-1.34,11.76.71,12.47,6.37,25,10.08,36.29-2.39,3.43-3.78,6.57-2.69,9.6.61,10.43,11.38,22.93,9.3,33.76,2.55,13.58-8.46,17.18,3.78,24.31,9.19,8.08,6.13,2.82,11.46-1.06,16.78-8.22,11.29-9.68,23.25-4.59,36.33C2698.69,2926.37,2702.55,2935.13,2703.11,2942.59Zm-45.41-53.36c-16.39-3.52-15.18,9.05-16.67,19.1-1.76,11.92,4.83,11.51,13.77,10.26,5.87-.82,11.62,2.77,10.93,10s-6.33,8.63-12.65,7.61c-1.85-.3-3.59-1.23-5.44-1.6-2.47-.5-4.85,0-6,2.51-1.42,3.29.52,5.51,3.13,7,9.14,5,18.29,5.69,26.08-2.21,7-7.1,8.76-15.57,3.38-24.63-3.17-5.34-8.43-7.31-14.21-8.34-3.11-.55-7.5-.09-7-4.93.48-4.36,4.61-3.95,7.86-4.18,1.89-.14,3.79-.08,5.67-.27,2.94-.3,6-1.12,6.36-4.47.47-4.39-3-5.47-6.45-5.76C2663.73,2889,2660.88,2889.23,2657.7,2889.23Zm-41-.14c-3.78,0-7.56-.15-11.32,0s-8.38.11-8.22,5.42,4.85,4.85,8.55,5.11a48.85,48.85,0,0,0,7.07,0c8.23-.62,10.27,2.24,6.2,9.74-4.72,8.7-9.19,17.57-13.19,26.63-1.45,3.27-7.1,7.5-1.39,10.68,4.27,2.37,7.83-1.89,9.9-5.82,7.23-13.78,14.47-27.57,21.39-41.51,3.05-6.15,1-10.09-6.25-10.3C2625.17,2889,2620.92,2889.09,2616.68,2889.09Z" transform="translate(-47.19 -85.85)"/><path class="cls-2" d="M2667,2848.12c.93-13.51,5.9-24.83,9.46-36.31,9.15-29.45,19.28-58.6,29.09-87.85,1-3.13,2.05-6.47,4-9.06,3.37-4.59,8.65-4,13-2.24,5.1,2,2.5,6.41,1.26,9.78-13.3,36.08-24.39,72.87-35.59,109.63C2685.34,2841.52,2677.28,2845.38,2667,2848.12Z" transform="translate(-47.19 -85.85)"/><path class="cls-1" d="M2657.7,2889.23c3.18,0,6-.18,8.85,0,3.5.29,6.92,1.37,6.45,5.76-.36,3.35-3.42,4.17-6.36,4.47-1.88.19-3.79.13-5.67.27-3.26.23-7.39-.17-7.86,4.18-.53,4.84,3.86,4.38,7,4.93,5.78,1,11,3,14.21,8.34,5.37,9.06,3.62,17.53-3.38,24.63-7.79,7.9-16.94,7.25-26.08,2.21-2.61-1.44-4.55-3.66-3.13-7,1.11-2.56,3.48-3,6-2.51,1.85.37,3.59,1.3,5.44,1.6,6.32,1,12-.32,12.65-7.61s-5.07-10.84-10.93-10c-8.94,1.25-15.53,1.66-13.77-10.26C2642.52,2898.28,2641.31,2885.71,2657.7,2889.23Z" transform="translate(-47.19 -85.85)"/><path class="cls-1" d="M2616.68,2889.09c4.25,0,8.5-.09,12.74,0,7.29.21,9.31,4.15,6.25,10.3-6.92,13.94-14.16,27.73-21.39,41.51-2.06,3.93-5.63,8.19-9.9,5.82-5.71-3.18-.06-7.41,1.39-10.68,4-9.05,8.47-17.92,13.19-26.63,4.07-7.5,2-10.35-6.2-9.74a48.85,48.85,0,0,1-7.07,0c-3.7-.26-8.38.13-8.55-5.11s4.48-5.23,8.22-5.42S2612.9,2889.09,2616.68,2889.09Z" transform="translate(-47.19 -85.85)"/></g><path class="cls-4" d="M3923.18,2711.42c0-11.28-1.87-14-13.7-14q-1864.73.53-3729.47.33c-3.8,0-7.7.09-11.49,0-2.87-.09-.52,2-1.52,2.88V4364.74c0,12.33,9.24,5.3,12.92,5.3q1864.73.62,3729.51.73c11.83,0,13.73-2.71,13.73-14Q3922.64,3534.1,3923.18,2711.42Zm-1306.5,177.67c-3.78,0-7.56-.15-11.32,0,3.77-.19,7.55,0,11.32,0,3.19,0,6.37,0,9.56,0C2623,2889,2619.86,2889.09,2616.68,2889.09Zm-123.58-177.43q-94,0-188,0,94,.11,188,0,94.72,0,189.44,0Q2587.81,2711.6,2493.09,2711.66Zm-701.09,0-105.35,0q-52.68,0-105.35-.11,52.68.13,105.35.11l105.35,0c52.32,0,104.64.1,157,0C1896.64,2711.75,1844.32,2711.66,1792,2711.66ZM1311.17,4356.53c17.8,0,35.64-.54,53.45-.49q5.34,0,10.68.11-5.33-.1-10.68-.11c-17.8-.05-35.64.49-53.45.49-23.86,0-47.72,0-71.57,0C1263.45,4356.58,1287.31,4356.53,1311.17,4356.53ZM492.76,2711c37,0,74.08.36,111.12.37,24.69,0,49.39.17,74.08.15-24.69,0-49.39-.23-74.08-.23-37,0-74.08-.29-111.12-.29h0ZM735.82,4356.53q105.77,0,211.54-.16,52.88,0,105.77.17-52.88-.19-105.77-.17-105.77,0-211.54.17-217.24,0-434.48,0Q518.58,4356.55,735.82,4356.53Z" transform="translate(-47.19 -85.85)"/></g><g id="Layer_3" data-name="Layer 3"><path class="cls-5" d="M1133,335l-.43.25" transform="translate(-47.19 -85.85)"/><path class="cls-6" d="M1026.89,411C861.63,547.54,582.69,864.94,795,1336c256,568,1510.73,329.94,1992,776,591.75,548.45,33.74,1041.56-192.82,1162.26" transform="translate(-47.19 -85.85)"/><path class="cls-5" d="M2534.48,3299.87l-.48.13" transform="translate(-47.19 -85.85)"/><path class="cls-7" d="M1171,4890s-72,48-72,144h624s24-176-24-224S1171,4890,1171,4890Z" transform="translate(-47.19 -85.85)"/></g><g id="Layer_1" data-name="Layer 1"><path class="cls-7" d="M1718.18,137.77h22V260.23h-22V207.08H1655.4v53.15h-21.84V137.77h21.84V189h62.78Z" transform="translate(-47.19 -85.85)"/><path class="cls-7" d="M1841.16,217.92H1781.3q.69,13.93,7,20.55t18.66,6.62q14.27,0,26.49-9.29l6.19,14.79a48.35,48.35,0,0,1-15.22,8,57.63,57.63,0,0,1-18.32,3q-21.33,0-33.54-12t-12.21-33a50.59,50.59,0,0,1,5.33-23.56,39.35,39.35,0,0,1,15-16.08,41.73,41.73,0,0,1,21.84-5.76q17.89,0,28.29,11.61t10.41,31.91ZM1789,191.69q-5.42,5.08-7,14.71h40.42q-1-9.8-5.93-14.79t-13.5-5Q1794.37,186.61,1789,191.69Z" transform="translate(-47.19 -85.85)"/><path class="cls-7" d="M1914.77,172.68l-.17,19.61a30,30,0,0,0-11.35-2.24q-11,0-16.77,6.36t-5.76,16.86v47h-21.33V198a197.09,197.09,0,0,0-1.38-24.6h20.12l1.72,15.31a25.81,25.81,0,0,1,10.32-12.9,29.24,29.24,0,0,1,16-4.47A24.18,24.18,0,0,1,1914.77,172.68Z" transform="translate(-47.19 -85.85)"/><path class="cls-7" d="M2001.12,217.92h-59.86q.69,13.93,7,20.55t18.66,6.62q14.27,0,26.49-9.29l6.19,14.79a48.35,48.35,0,0,1-15.22,8,57.63,57.63,0,0,1-18.32,3q-21.33,0-33.54-12t-12.21-33a50.59,50.59,0,0,1,5.33-23.56,39.35,39.35,0,0,1,15-16.08,41.73,41.73,0,0,1,21.84-5.76q17.89,0,28.29,11.61t10.41,31.91Zm-52.2-26.23q-5.42,5.08-7,14.71h40.42q-1-9.8-5.93-14.79t-13.5-5Q1954.33,186.61,1948.91,191.69Z" transform="translate(-47.19 -85.85)"/><path class="cls-7" d="M2065.1,134H2089v21.16H2065.1Zm1.38,126.25V173.37h21.33v86.86Z" transform="translate(-47.19 -85.85)"/><path class="cls-7" d="M2105.68,250.6l6-15.14a52.07,52.07,0,0,0,31.82,10.32q7.74,0,12-2.58a8.06,8.06,0,0,0,4.21-7.22,7.6,7.6,0,0,0-2.92-6.28q-2.93-2.32-10-4l-14.45-3.27q-23.73-5.16-23.74-24.25a23.1,23.1,0,0,1,4.47-14,29.38,29.38,0,0,1,12.56-9.55,47.57,47.57,0,0,1,18.75-3.44,56.72,56.72,0,0,1,17.89,2.84,47,47,0,0,1,15.14,8.17L2171,196.76q-13.07-9.63-26.83-9.63-7.4,0-11.52,2.75a8.64,8.64,0,0,0-4.13,7.57,7.68,7.68,0,0,0,2.49,6q2.49,2.24,8.51,3.78l14.79,3.27q12.9,2.93,18.83,9t5.93,15.91a22.44,22.44,0,0,1-9.63,19.09q-9.63,7.05-26.32,7.05Q2119.61,261.61,2105.68,250.6Z" transform="translate(-47.19 -85.85)"/><path class="cls-7" d="M2362,173.37h21l-34.06,86.86h-18.75l-21.5-56.93-21,56.93h-18.92l-34.06-86.86h22l22.36,61.23,22.53-61.23h15.48l22.53,61.75Z" transform="translate(-47.19 -85.85)"/><path class="cls-7" d="M2477.37,206.91v53.32h-21.5V207.94q0-10.32-4-15t-12.21-4.73q-9.8,0-15.82,6.28t-6,16.6v49.19h-21.33V133.64h21.33v52.29A30.63,30.63,0,0,1,2429.73,175a35.06,35.06,0,0,1,16.51-3.87Q2477.37,171.13,2477.37,206.91Z" transform="translate(-47.19 -85.85)"/><path class="cls-7" d="M2576.27,217.92h-59.86q.69,13.93,7,20.55t18.66,6.62q14.27,0,26.49-9.29l6.19,14.79a48.35,48.35,0,0,1-15.22,8,57.63,57.63,0,0,1-18.32,3q-21.33,0-33.54-12t-12.21-33a50.59,50.59,0,0,1,5.33-23.56,39.35,39.35,0,0,1,15-16.08,41.73,41.73,0,0,1,21.84-5.76q17.89,0,28.29,11.61t10.41,31.91Zm-52.2-26.23q-5.42,5.08-7,14.71h40.42q-1-9.8-5.93-14.79t-13.5-5Q2529.49,186.61,2524.07,191.69Z" transform="translate(-47.19 -85.85)"/><path class="cls-7" d="M2649.89,172.68l-.17,19.61a29.94,29.94,0,0,0-11.35-2.24q-11,0-16.77,6.36t-5.76,16.86v47H2594.5V198a197.18,197.18,0,0,0-1.38-24.6h20.12l1.72,15.31a25.81,25.81,0,0,1,10.32-12.9,29.23,29.23,0,0,1,16-4.47A24.18,24.18,0,0,1,2649.89,172.68Z" transform="translate(-47.19 -85.85)"/><path class="cls-7" d="M2736.23,217.92h-59.86q.69,13.93,7,20.55t18.66,6.62q14.27,0,26.49-9.29l6.19,14.79a48.35,48.35,0,0,1-15.22,8,57.63,57.63,0,0,1-18.32,3q-21.33,0-33.54-12t-12.21-33a50.59,50.59,0,0,1,5.33-23.56,39.35,39.35,0,0,1,15-16.08,41.73,41.73,0,0,1,21.84-5.76q17.89,0,28.29,11.61t10.41,31.91ZM2684,191.69q-5.42,5.08-7,14.71h40.42q-1-9.8-5.93-14.79t-13.5-5Q2689.44,186.61,2684,191.69Z" transform="translate(-47.19 -85.85)"/><path class="cls-7" d="M2803.13,260.23V137.77h22.19V260.23Z" transform="translate(-47.19 -85.85)"/><path class="cls-7" d="M2980.46,173.37v86.86h-21.16V246.3A27.91,27.91,0,0,1,2948,257.56a34.6,34.6,0,0,1-16.86,4,37,37,0,0,1-20.12-5.5,36.32,36.32,0,0,1-13.59-15.65q-4.82-10.15-4.82-23.56a55.27,55.27,0,0,1,4.9-23.82,38.39,38.39,0,0,1,13.67-16.17,35.53,35.53,0,0,1,20-5.76,34.6,34.6,0,0,1,16.86,4,27.93,27.93,0,0,1,11.35,11.27V173.37Zm-27,64q5.85-7.39,5.85-20.81,0-13.76-5.85-21.16t-16.68-7.4q-10.67,0-16.6,7.65t-5.93,21.24q0,13.42,5.93,20.64t16.77,7.22Q2947.61,244.75,2953.46,237.35Z" transform="translate(-47.19 -85.85)"/><path class="cls-7" d="M3128.38,180q7.22,8.86,7.22,26.92v53.32h-21.5V207.6q0-10.32-3.35-14.88t-11.09-4.56q-8.95,0-14,6.28t-5.07,17.29v48.5h-21.5V207.6q0-10.15-3.53-14.79t-11.09-4.64q-8.95,0-14.1,6.28t-5.16,17.29v48.5h-21.33V198a197.18,197.18,0,0,0-1.38-24.6h20.12l1.55,13.76a27.06,27.06,0,0,1,10.92-11.87,32.21,32.21,0,0,1,16.43-4.13q20,0,26,16.51a30,30,0,0,1,11.78-12.13,33.8,33.8,0,0,1,17.11-4.39Q3121.15,171.13,3128.38,180Z" transform="translate(-47.19 -85.85)"/><path class="cls-7" d="M3156.24,236.15h24.08v24.08h-24.08Z" transform="translate(-47.19 -85.85)"/><circle class="cls-8" cx="1248.86" cy="119.12" r="119.12"/><circle class="cls-8" cx="2437.86" cy="3236.14" r="119.12"/><path class="cls-7" d="M2482.61,4887.85V4765.39h22.19v122.46Z" transform="translate(-47.19 -85.85)"/><path class="cls-7" d="M2694.17,4801h21l-34.06,86.86h-18.75l-21.5-56.93-21,56.93h-18.92L2566.89,4801h22l22.36,61.23,22.53-61.23h15.48l22.53,61.75Z" transform="translate(-47.19 -85.85)"/><path class="cls-7" d="M2810.27,4801v86.86h-21.16v-13.93a27.91,27.91,0,0,1-11.35,11.27,34.6,34.6,0,0,1-16.86,4,37,37,0,0,1-20.12-5.5,36.32,36.32,0,0,1-13.59-15.65q-4.82-10.15-4.82-23.56a55.27,55.27,0,0,1,4.9-23.82,38.39,38.39,0,0,1,13.67-16.17,35.52,35.52,0,0,1,20-5.76,34.6,34.6,0,0,1,16.86,4,27.93,27.93,0,0,1,11.35,11.27V4801Zm-27,64q5.85-7.39,5.85-20.81,0-13.76-5.85-21.16t-16.68-7.4q-10.67,0-16.6,7.65t-5.93,21.24q0,13.42,5.93,20.64t16.77,7.22Q2777.41,4872.37,2783.26,4865Z" transform="translate(-47.19 -85.85)"/><path class="cls-7" d="M2914.5,4834.53v53.32H2893v-52.29q0-10.32-4-15t-12.21-4.73q-9.8,0-15.82,6.28t-6,16.6v49.19h-21.33v-62.26a197.19,197.19,0,0,0-1.38-24.6h20.12l1.55,14.28a31.43,31.43,0,0,1,12.13-12.21,34.68,34.68,0,0,1,17.29-4.3Q2914.49,4798.76,2914.5,4834.53Z" transform="translate(-47.19 -85.85)"/><path class="cls-7" d="M2964.72,4817.16V4856q0,15.31,14.28,15.31a30.33,30.33,0,0,0,8.6-1.38v17a40.44,40.44,0,0,1-13.76,2.06q-14.79,0-22.7-8.26t-7.91-23.74v-39.9h-16.68V4801h16.68v-21.16l21.5-7.22V4801h23v16.17Z" transform="translate(-47.19 -85.85)"/><path class="cls-7" d="M3077,4817.16V4856q0,15.31,14.28,15.31a30.33,30.33,0,0,0,8.6-1.38v17a40.44,40.44,0,0,1-13.76,2.06q-14.79,0-22.7-8.26t-7.91-23.74v-39.9h-16.68V4801h16.68v-21.16l21.5-7.22V4801h23v16.17Z" transform="translate(-47.19 -85.85)"/><path class="cls-7" d="M3131,4883.73a37.59,37.59,0,0,1-15.48-15.74q-5.42-10.23-5.42-24t5.42-24a37.62,37.62,0,0,1,15.48-15.74q10.06-5.5,23.31-5.5a46.94,46.94,0,0,1,23,5.5A37.76,37.76,0,0,1,3192.7,4820q5.42,10.24,5.42,24t-5.42,24a37.73,37.73,0,0,1-15.39,15.74,46.92,46.92,0,0,1-23,5.5Q3141,4889.23,3131,4883.73Zm39.9-18.49q5.76-7.14,5.76-21.24,0-13.93-5.85-21.24t-16.51-7.31q-10.84,0-16.68,7.31t-5.85,21.24q0,14.1,5.76,21.24t16.6,7.14Q3165.1,4872.37,3170.86,4865.24Z" transform="translate(-47.19 -85.85)"/><path class="cls-7" d="M3333.4,4804.35a37.16,37.16,0,0,1,13.5,15.74q4.81,10.15,4.82,23.56a55.27,55.27,0,0,1-4.9,23.82,38,38,0,0,1-13.59,16.08,35.51,35.51,0,0,1-19.87,5.68,34.83,34.83,0,0,1-17.11-4.13,27,27,0,0,1-11.27-11.52v14.28h-21.16V4761.26h21.33v52.8a27.89,27.89,0,0,1,11.35-11.27,34.59,34.59,0,0,1,16.86-4A36.22,36.22,0,0,1,3333.4,4804.35Zm-9.2,60.46q5.84-7.57,5.85-21.16,0-13.42-5.85-20.73t-16.68-7.31q-10.84,0-16.68,7.4t-5.85,21q0,13.76,5.85,21.07t16.86,7.31Q3318.35,4872.37,3324.2,4864.81Z" transform="translate(-47.19 -85.85)"/><path class="cls-7" d="M3446.49,4845.54h-59.86q.69,13.93,7,20.55t18.66,6.62q14.27,0,26.49-9.29l6.19,14.79a48.35,48.35,0,0,1-15.22,8,57.63,57.63,0,0,1-18.32,3q-21.33,0-33.54-12t-12.21-33a50.58,50.58,0,0,1,5.33-23.56,39.35,39.35,0,0,1,15-16.08,41.72,41.72,0,0,1,21.84-5.76q17.89,0,28.29,11.61t10.41,31.91Zm-52.2-26.23q-5.42,5.08-7,14.71h40.42q-1-9.8-5.93-14.79t-13.5-5Q3399.7,4814.24,3394.28,4819.31Z" transform="translate(-47.19 -85.85)"/><path class="cls-7" d="M3592.68,4834.53v53.32h-21.5v-52.29q0-10.32-4-15t-12.21-4.73q-9.8,0-15.82,6.28t-6,16.6v49.19h-21.33V4761.26h21.33v52.29a30.63,30.63,0,0,1,11.87-10.92,35.06,35.06,0,0,1,16.51-3.87Q3592.68,4798.76,3592.68,4834.53Z" transform="translate(-47.19 -85.85)"/><path class="cls-7" d="M3691.58,4845.54h-59.86q.69,13.93,7,20.55t18.66,6.62q14.27,0,26.49-9.29l6.19,14.79a48.35,48.35,0,0,1-15.22,8,57.63,57.63,0,0,1-18.32,3q-21.33,0-33.54-12t-12.21-33a50.58,50.58,0,0,1,5.33-23.56,39.35,39.35,0,0,1,15-16.08,41.72,41.72,0,0,1,21.84-5.76q17.89,0,28.29,11.61t10.41,31.91Zm-52.2-26.23q-5.42,5.08-7,14.71h40.42q-1-9.8-5.93-14.79t-13.5-5Q3644.79,4814.24,3639.38,4819.31Z" transform="translate(-47.19 -85.85)"/><path class="cls-7" d="M3765.2,4800.31l-.17,19.61a30,30,0,0,0-11.35-2.24q-11,0-16.77,6.36t-5.76,16.86v47h-21.33v-62.26a197.19,197.19,0,0,0-1.38-24.6h20.12l1.72,15.31a25.81,25.81,0,0,1,10.32-12.9,29.23,29.23,0,0,1,16-4.47A24.17,24.17,0,0,1,3765.2,4800.31Z" transform="translate(-47.19 -85.85)"/><path class="cls-7" d="M3851.54,4845.54h-59.86q.69,13.93,7,20.55t18.66,6.62q14.27,0,26.49-9.29l6.19,14.79a48.35,48.35,0,0,1-15.22,8,57.63,57.63,0,0,1-18.32,3q-21.33,0-33.54-12t-12.21-33a50.58,50.58,0,0,1,5.33-23.56,39.35,39.35,0,0,1,15-16.08,41.72,41.72,0,0,1,21.84-5.76q17.89,0,28.29,11.61t10.41,31.91Zm-52.2-26.23q-5.42,5.08-7,14.71h40.42q-1-9.8-5.93-14.79t-13.5-5Q3804.75,4814.24,3799.34,4819.31Z" transform="translate(-47.19 -85.85)"/><path class="cls-7" d="M3867.53,4863.77h24.08v24.08h-24.08Z" transform="translate(-47.19 -85.85)"/></g><g id="Layer_11" data-name="Layer 11"><path class="cls-9" d="M3378.61,2751.21" transform="translate(-47.19 -85.85)"/></g><g id="Layer_10" data-name="Layer 10"><path class="cls-10" d="M963.55,3759.91s336.23,225.35,663.26,84.82,363.15-580.46-4.34-570.25-658.92,485.43-658.92,485.43" transform="translate(-47.19 -85.85)"/><path class="cls-10" d="M753.25,3121s-141.77,871.31,470.31,735.34c689-153.06,195.07-401.17,195.07-401.17Z" transform="translate(-47.19 -85.85)"/><path class="cls-11" d="M1690.85,4220.93c66.16,178.53,124.78,292,202.63,293.36,181.81-5.53,298.32-364.79,298.32-364.79l75.64,4.55c199.71-39.83,111.77-272.82,110.66-207.94s-123.28,78-122.94,58.53,33.59-27.5,26.58-36.3c-49-61.51-138.62,137.11-138.62,137.11-158,133.54-237.69,239.21-237.69,239.21s-46-90.54-56.76-220.49c-15.33-240.34-173-126.26-276.36-154s-41.73-214.84-41.73-214.84l-173.84,18.53s43.93,212.76-46.75,202.55-159.52-33-208.51,48.33S908.27,4190.17,806,4348.5c-48.77,68.39,207.16,300.75,301.65,341.31,0,0-67.78,167.57-175,113.81,0,0,50.19,100.37,132.45,97.46s136.54-140.43,115.28-162.43c0,0-98.58-324.84-206.12-361.3,0,0,179.69-111.7,180.29-146.3l1,2.77s3.87,104.91,109.88,193.33,87-69.91,87-69.91l86.44-151" transform="translate(-47.19 -85.85)"/><path class="cls-12" d="M1796.5,3073.89c36,120.76,76.94,410.9,28,500.35-61.11,111.8-166.26,233.14-311.31,276.38-146.87,43.78-303.06-.88-416-63.12-87.87-48.41-210.83-312.9-246.26-431.77-81-271.69,59.32-574.22,320.43-652S1715.52,2802.19,1796.5,3073.89Z" transform="translate(-47.19 -85.85)"/><path class="cls-10" d="M817.66,3240.32s-112.9-545-446.89-258.24-324,667.56-180.62,834.56,374.65,163,225.61,442.9c0,0,287-263.45,304.24-782.06C728.32,3226.69,817.66,3240.32,817.66,3240.32Z" transform="translate(-47.19 -85.85)"/><path class="cls-13" d="M415.76,4259.54s3.72-1.42,10.39-4.5c55-100.18,24.64-263.09,16-445.32-13.48-283.39,130.14-450,130.14-450-54.37,12.19-105.66,128.25-105.66,128.25C530.37,3141.54,768,3229.69,768,3229.69a189.53,189.53,0,0,1,12.17,23.76c20.34-13,37.32-14.66,37.32-14.66s-117.05-565-463.31-267.73S18.3,3663.16,166.95,3836.28,486.36,4127.73,415.76,4259.54Z" transform="translate(-47.19 -85.85)"/><path class="cls-13" d="M804.77,3099.86S389.93,2800.4,47.19,3183c0,0,276-388.25,568.75-290C680.79,2914.86,802.27,3074,802.27,3074Z" transform="translate(-47.19 -85.85)"/><path class="cls-13" d="M1520.7,2896.14s-220.1,515.88-705.39,623c0,0-179.58-56.33-109.75-304.19,0,0-131.53-529.81,357.37-530.14,0,0,329.34-237.12,590.2,106.06,0,0,298.06,233.06,244.66,720.45,0,0-49.5,295.6-10.36,352.15,0,0-79.18-118.72-81.24-486.89S1520.7,2896.14,1520.7,2896.14Z" transform="translate(-47.19 -85.85)"/><path class="cls-13" d="M1116.24,3196.78s-119.62,528.46,158,742.53c0,0-426.8-112.52-351.59-660.8S1116.24,3196.78,1116.24,3196.78Z" transform="translate(-47.19 -85.85)"/><ellipse class="cls-14" cx="1252.46" cy="3390.16" rx="125" ry="127.37" transform="translate(-946.83 400.81) rotate(-16.27)"/><path class="cls-15" d="M1396.12,3410.55c1.4,75.39-33.57,119.39-103.24,131.36s-139.67-15.66-152-87.51,44.42-121.26,114.09-133.23S1394.76,3337.66,1396.12,3410.55Z" transform="translate(-47.19 -85.85)"/><circle class="cls-16" cx="1303.66" cy="3401.28" r="87.72" transform="translate(-604.32 184.03) rotate(-9.75)"/><circle class="cls-17" cx="1313.33" cy="3392.51" r="52.75" transform="translate(-602.7 185.54) rotate(-9.75)"/><path class="cls-18" d="M1382.35,3362.23s-64.46-118.29-191.93-50.27c-107.46,57.34-55.47,132.3-123.49,119.64,0,0,15.81,55.12,99.5-56.67C1204.31,3331.89,1297.59,3324,1382.35,3362.23Z" transform="translate(-47.19 -85.85)"/><path class="cls-18" d="M1155.28,3378.87s-25.54,87.59,13.85,139.67C1169.13,3518.55,1092.85,3452.51,1155.28,3378.87Z" transform="translate(-47.19 -85.85)"/><path class="cls-14" d="M1596.76,3332.69c-2.69,69.66,36,132.11,86.36,139.47s93.42-43.15,96.11-112.81-36-132.11-86.36-139.47S1599.45,3263,1596.76,3332.69Z" transform="translate(-47.19 -85.85)"/><path class="cls-15" d="M1589.22,3391.16c11.65,74.17,43.91,111.19,95.48,110.73s96.74-39.81,93.47-112.42-51.94-111.12-103.51-110.66S1578,3319.45,1589.22,3391.16Z" transform="translate(-47.19 -85.85)"/><path class="cls-16" d="M1767.29,3332.51c22.13,41.11,16.38,92.92-12.85,115.72s-70.87,8-93-33.16-16.38-92.92,12.85-115.72S1745.15,3291.4,1767.29,3332.51Z" transform="translate(-47.19 -85.85)"/><path class="cls-17" d="M1749.63,3337.85c13.31,24.72,9.85,55.87-7.72,69.58s-42.61,4.78-55.92-19.94-9.85-55.87,7.72-69.58S1736.32,3313.13,1749.63,3337.85Z" transform="translate(-47.19 -85.85)"/><path class="cls-18" d="M1590.91,3341.37s26-127.27,128.1-82.9c86.06,37.41,61.65,120,107.92,95.69,0,0-2,56.82-80.29-38.14C1712.48,3280.45,1644.8,3289.07,1590.91,3341.37Z" transform="translate(-47.19 -85.85)"/><path class="cls-18" d="M1755.24,3317.93s32.86,81.41,13.58,139.38C1768.81,3457.31,1812,3379.2,1755.24,3317.93Z" transform="translate(-47.19 -85.85)"/><path class="cls-18" d="M1355.8,3173.6c-2.27,16.57-169,22.26-169,22.26l-140.08,64.18,166.61-30,118.93,1.67s47-26.57,57.8-49.56l-36.44,19.22Z" transform="translate(-47.19 -85.85)"/><path class="cls-18" d="M1579,3145.1c3.89,15.68,107.84-2.27,107.84-2.27l98.51,42-109.78-5.26-73.31,18.34s-33.07-19-43.18-39.72l25.42,13.43Z" transform="translate(-47.19 -85.85)"/><path class="cls-19" d="M1519.25,3429.72s11.32,92.7,39.23,86.08c34.76-8.25,63.49,52.09,4.78,65.85S1515.44,3535.41,1519.25,3429.72Z" transform="translate(-47.19 -85.85)"/><path class="cls-20" d="M1672.85,4457.17s133.21-97.93,7.92-296.57c0,0,22.29-175.12-32.7-196.71s-72.42,6.09-72.42,6.09,111.39-62,83.14,182.53c0,0-96.45-7.76-130.69,32.8,0,0-143.92-62.72-208.27-23.84,0,0-32.12-180.05-69.7-199.7-5.23-2.74-35.26-1.27-41.87,3.19,2.28-1.51,12.92-6.66,32.44,11.85,24.47,23.21,46.53,118.55,58.62,191.45-3,57.77-33.86,99-99.48,115.64-33.46,7.46-41-22.2-41-22.2s17.56,99.29,67.19,207.19c38.55,83.81-5.3,177-49.14,260.65,0,0,1.69,14.79,4,19.1,11.16,21.1-13.28,94.71-66.1,133.7-6.11,56.08-5.94,60.09-5.94,60.09S1507,5048,1753.67,4914.92C1753.67,4914.92,1666.42,4583.55,1672.85,4457.17Z" transform="translate(-47.19 -85.85)"/><path class="cls-20" d="M1208.26,3965a4.79,4.79,0,0,0-.47.35A5.28,5.28,0,0,1,1208.26,3965Z" transform="translate(-47.19 -85.85)"/><path class="cls-21" d="M1346.49,3695.15s84.5-26.46,128.42-21.65,60.06-2.9,80.06-2.53,57.44,31.06,57.44,31.06-119.24,175.84-267.92-6.91" transform="translate(-47.19 -85.85)"/><path class="cls-15" d="M1358.49,3695.37s95.8,11.76,139.87,8.56c36.78-2.67,102.06-2.13,102.06-2.13s-70.94,50.71-102.94,50.12C1461.26,3751.27,1385.83,3731.88,1358.49,3695.37Z" transform="translate(-47.19 -85.85)"/></g></svg>