<svg xmlns="http://www.w3.org/2000/svg" viewBox="0 0 199.25 199.37"><defs><style>.cls-1{fill:none;stroke:#000;stroke-miterlimit:10;}</style></defs><title>cut2_1</title><g id="Layer_2" data-name="Layer 2"><g id="Layer_1-2" data-name="Layer 1"><path class="cls-1" d="M198.57,88.91c-3.36-22.5-39.75-12-62.2-3.23,21.29-11.16,53.55-31.66,40-47.74C162.69,21.7,139.57,45,124.75,63.85c12.74-20.66,28.17-52,9.26-58.72-21.06-7.44-29.86,28.18-33.35,52.14C101.24,33.48,99-3.54,78.57.86c-27.92,6-5.49,51.1,2.54,66-9.72-13.5-41.48-51.91-57.5-31-13.49,17.56,20.73,38.65,42,48.89-22.26-8.4-62.38-21.21-65-.49C-2.13,106.45,39,106.73,63.05,105,39.69,109.53-.32,120.32,8.33,139.27c9.13,20,41.41-.86,60.72-15.31-16.5,17-43.19,49.64-24.78,60.36,18.76,10.93,35.09-24.74,43.18-47-4.72,23.28-9.45,62.07,10.48,61.58s16-41.2,11.72-64.11c7.89,22.14,24.07,61.68,40.37,51.56,20.54-12.76-6.88-45-23.16-61.47,17.57,15.29,51.24,40.72,61.15,20.87,10.4-20.84-27.41-33.23-50.75-38.74C160.58,109.37,201.81,110.61,198.57,88.91Z"/><circle class="cls-1" cx="94.66" cy="89.62" r="3.35"/><circle class="cls-1" cx="112.51" cy="99.66" r="3.35"/><circle class="cls-1" cx="95.78" cy="108.59" r="3.35"/></g></g></svg>