<svg id="Layer_1" data-name="Layer 1" xmlns="http://www.w3.org/2000/svg" viewBox="0 0 171.99 121.59"><defs><style>.cls-1{fill:#e26a6a;}.cls-2{fill:#f4d160;}.cls-3{fill:#5ba1d6;}.cls-4{fill:#2c3c42;}</style></defs><title>haleyjoy_logo</title><path class="cls-1" d="M50.14,61v40.76q0,8.83-4.42,14.45-5.15,6.44-15.46,6.44-9.29,0-14.81-5.34A18.52,18.52,0,0,1,9.93,105.6H17.1a11.56,11.56,0,0,0,3.77,6.9q3.68,3.41,9.75,3.41,7.36,0,10.49-4.88,2.12-3.4,2.12-9.57V61Z" transform="translate(-9.93 -1.04)"/><path class="cls-2" d="M91.54,60.24q13.62,0,22.36,9.11,8.56,8.83,8.56,22.08t-8.56,22.08q-8.74,9.11-22.36,9.11t-22.36-9.11q-8.56-8.83-8.56-22.08t8.56-22.08Q77.92,60.24,91.54,60.24Zm0,55.67q10.86,0,17.57-7.08,6.44-6.81,6.44-17.39T109.11,74Q102.4,67,91.54,67T74,74q-6.44,6.81-6.44,17.39T74,108.82Q80.68,115.9,91.54,115.9Z" transform="translate(-9.93 -1.04)"/><path class="cls-3" d="M155.21,121.89h-6.9V97.78L122.73,61h8.37L151.72,90.6,172.33,61h8.37L155.21,97.78Z" transform="translate(-9.93 -1.04)"/><path class="cls-4" d="M48.93,1V17.31a14.69,14.69,0,0,1,3.86-3.57A9.45,9.45,0,0,1,58,12.27a13.89,13.89,0,0,1,5,.82,10.22,10.22,0,0,1,3.69,2.46A12.63,12.63,0,0,1,70.35,25V42H66V25.09a9,9,0,0,0-2.28-6.44,7.79,7.79,0,0,0-5.91-2.4,8.74,8.74,0,0,0-6.26,2.46,8.61,8.61,0,0,0-2.58,6.44V42H44.54V1Z" transform="translate(-9.93 -1.04)"/><path class="cls-4" d="M100.5,37.33Q97,42.48,90,42.48a13.27,13.27,0,0,1-10.3-4.39,15.51,15.51,0,0,1-3.86-10.71,15.51,15.51,0,0,1,3.86-10.71,13.61,13.61,0,0,1,10.59-4.39,11.61,11.61,0,0,1,10.18,5.21V12.74h4.39V42H100.5ZM90.61,38.5a9.27,9.27,0,0,0,7.49-3.28,11.7,11.7,0,0,0,2.63-7.84,11.7,11.7,0,0,0-2.63-7.84,9.27,9.27,0,0,0-7.49-3.28A9.72,9.72,0,0,0,83,19.53a11.38,11.38,0,0,0-2.75,7.84A11.38,11.38,0,0,0,83,35.22,9.72,9.72,0,0,0,90.61,38.5Z" transform="translate(-9.93 -1.04)"/><path class="cls-4" d="M116.89,42H112.5V1h4.39Z" transform="translate(-9.93 -1.04)"/><path class="cls-4" d="M137.55,38.5q5.91,0,8.49-4.92h4.8A14.13,14.13,0,0,1,146,40a13.91,13.91,0,0,1-8.52,2.46,14.16,14.16,0,0,1-10.77-4.39,15,15,0,0,1-4-10.71,15.24,15.24,0,0,1,3.86-10.71,15.12,15.12,0,0,1,21.31,0,15.24,15.24,0,0,1,3.86,10.71v1.76H127.19a10.61,10.61,0,0,0,3.22,6.67A9.9,9.9,0,0,0,137.55,38.5Zm-.35-22.24a9.68,9.68,0,0,0-6.79,2.52A10.39,10.39,0,0,0,127.25,25h19.9A10.4,10.4,0,0,0,144,18.77,9.69,9.69,0,0,0,137.2,16.25Z" transform="translate(-9.93 -1.04)"/><path class="cls-4" d="M164.59,53.6h-4.74l5.33-12L153.24,12.74h4.86l9.42,24,9.6-24h4.8Z" transform="translate(-9.93 -1.04)"/></svg>