<svg xmlns="http://www.w3.org/2000/svg" viewBox="0 0 395.15 261.6"><defs><style>.cls-1{fill:#f2db38;}</style></defs><title>littlelemon</title><g id="Layer_2" data-name="Layer 2"><g id="Layer_1-2" data-name="Layer 1"><path class="cls-1" d="M377.4,134.3c-7-54.2-47.65-95.71-124.53-95.71C183.12,38.6,136.8,80,128.57,134c-10.88,1.7-19.09,9.25-19.09,18.3s8.23,16.62,19.14,18.3c7.67,52.78,48.25,90.95,124.25,90.95s116.7-38.27,124.28-91.16c10.33-2,18-9.34,18-18.09S387.6,136.4,377.4,134.3Zm-71.06-33h26v11h-15v5h11v11h-11v5h15v10h-26Zm-26,0h11v32h11v10h-22Zm-33,0h29v11h-9v31h-10v-31h-10Zm-8-48.15a2.61,2.61,0,1,1-2,3.09A2.61,2.61,0,0,1,239.33,53.2Zm-15.23.43a3.78,3.78,0,1,1-2.92,4.47A3.78,3.78,0,0,1,224.1,53.63Zm-12.65-1.77a2.61,2.61,0,1,1-2,3.09A2.61,2.61,0,0,1,211.45,51.86ZM207.84,64a6.67,6.67,0,1,1-5.16,7.89A6.67,6.67,0,0,1,207.84,64Zm-8.49,37.36h11v42h-11ZM182.6,75.26a2.61,2.61,0,1,1-2,3.09A2.61,2.61,0,0,1,182.6,75.26Zm8.75,128.08h-22v-42h11v32h11Zm3-60h-21v-42h10v32h11Zm-2.28-73.2A3.78,3.78,0,1,1,195,65.68,3.78,3.78,0,0,1,192.06,70.15Zm30.28,102.2h-16v5h11v10h-11v6h16v10h-27v-42h27Zm-8-60v-11h29v11h-9v31h-10v-31Zm49,91h-11V192.53L248,203.35h-6.8L237.34,192v11.31h-11v-42h10.24l8,22.42c1.32-3.76,2.66-7.53,4-11.24s2.71-7.18,4-11.18h10.7Zm6.46,34.3a2.61,2.61,0,1,1,2.61-2.61A2.61,2.61,0,0,1,269.81,237.64Zm15,2.69a3.78,3.78,0,1,1,3.78-3.78A3.78,3.78,0,0,1,284.8,240.33Zm-1.36-36.73a15.58,15.58,0,0,1-6.3-1.32,17.12,17.12,0,0,1-5.43-3.78,14.16,14.16,0,0,1-3.28-5.43,21.66,21.66,0,0,1-1.09-6.41v-9.54a16,16,0,0,1,1.17-5.62,14.81,14.81,0,0,1,3.15-5,17.34,17.34,0,0,1,5.42-3.78,15.74,15.74,0,0,1,6.4-1.31,16,16,0,0,1,11.74,5.1,13.72,13.72,0,0,1,3.07,4.88,16.33,16.33,0,0,1,1,5.7v9.54a21,21,0,0,1-1,6.25,14.16,14.16,0,0,1-3.17,5.54,16.75,16.75,0,0,1-5.39,3.81A15.61,15.61,0,0,1,283.44,203.6Zm13.38,41a2.61,2.61,0,1,1,2.61-2.61A2.61,2.61,0,0,1,296.83,244.65Zm6-11.14a6.67,6.67,0,1,1,6.67-6.67A6.67,6.67,0,0,1,302.84,233.51Zm16.7,4.75a3.78,3.78,0,1,1,3.78-3.78A3.78,3.78,0,0,1,319.54,238.26Zm10.31-10.62a2.61,2.61,0,1,1,2.61-2.61A2.61,2.61,0,0,1,329.85,227.64Zm5.49-24.29h-10.9l-10.1-17.89v17.89h-11v-42H314l9.37,18.19V161.35h12Z"/><path class="cls-1" d="M75.21,165.22c-4.57-.92-6.49-4.86-7.13-9.37a47.16,47.16,0,0,0,8.78-2.93A47.69,47.69,0,0,0,96.8,136.14c1.89-2.79,3.48-8.1,4.75-14.17.18,0,.34,0,.53,0,5.78,0,10.46-4.89,10.46-13,0-7.57-2.6-13.8-7.64-14.61,0-.63,0-1.23,0-1.76,0-.14,0-.29,0-.43,2.59-.37,5.34-2.61,6.36-10C114,57.33,96,43.67,83.77,37.35c6.28-21-3.34-23.43-9.13-23.15C76,8.65,75.14,3.09,67.34,1,41.15-5.8,25.22,22.56,31,37.38,18.78,43.72.83,57.38,3.55,82.23c1,7.37,3.79,9.61,6.39,10,0,.13,0,.25,0,.38,0,.56,0,1.18,0,1.84a6.57,6.57,0,0,0-1.2-.12C3,94.29,0,100.87,0,109s4.68,13,10.46,13a5.9,5.9,0,0,0,2.72-.55c1.28,6.28,2.9,11.78,4.84,14.65a47.73,47.73,0,0,0,16.81,15.26,47.19,47.19,0,0,0,15.25,5.12c-.62,4.63-2.55,8.48-7.22,8.74-15.23.85-31,5.09-34.38,22.05-3.22,16.31,43.46,16.16,50.61,16.12s53.78.2,50.56-16.12C106.3,170.3,87.87,167.76,75.21,165.22ZM46.8,109.45q-.91.63-1.8,1.15a12.12,12.12,0,0,1,1.12,1.71,1.92,1.92,0,0,1-3.38,1.81c-.05-.09-.41-1.28-.78-2a20.18,20.18,0,0,1-2,.7,18.29,18.29,0,0,1,.1,2.4,1.92,1.92,0,0,1-3.83,0c0-.11,0-1-.06-1.75a17.58,17.58,0,0,1-2.24,0l-.88-.08.27.05a12,12,0,0,1-.86,2.09,1.92,1.92,0,0,1-3.38-1.82c.05-.1.23-.48.44-1a19.86,19.86,0,0,1-2.52-.93,12.22,12.22,0,0,1-1.31,1.71,1.92,1.92,0,0,1-2.8-2.62c.08-.09.39-.46.78-1a13.18,13.18,0,0,1-1.69-1.4,1.92,1.92,0,0,1,2.79-2.62c.37.38,8.35,8.51,19.85.52a1.92,1.92,0,1,1,2.19,3.15Zm21-2.67a1.92,1.92,0,0,1,2.67-.48c11.49,8,19.48-.13,19.85-.52a1.92,1.92,0,0,1,2.79,2.62,13.18,13.18,0,0,1-1.69,1.4c.39.54.69.91.78,1a1.92,1.92,0,0,1-2.8,2.62,12.22,12.22,0,0,1-1.31-1.71,19.86,19.86,0,0,1-2.52.93c.22.55.39.93.44,1a1.92,1.92,0,0,1-3.38,1.82,12,12,0,0,1-.86-2.09l.27-.05-.88.08a17.58,17.58,0,0,1-2.24,0c-.06.72-.06,1.63-.06,1.75a1.92,1.92,0,0,1-3.83,0,18.29,18.29,0,0,1,.1-2.4,20.18,20.18,0,0,1-2-.7c-.37.75-.73,1.93-.78,2a1.92,1.92,0,0,1-3.38-1.81,12.12,12.12,0,0,1,1.12-1.71q-.89-.52-1.8-1.15A1.92,1.92,0,0,1,67.79,106.79Z"/></g></g></svg>