<svg xmlns="http://www.w3.org/2000/svg" viewBox="0 0 191.48 135.36"><defs><style>.cls-1{fill:#e26a6a;}.cls-2{fill:#f4d160;}.cls-3{fill:#5ba1d6;}.cls-4{fill:#2c3c42;}</style></defs><title>logo</title><g id="Layer_2" data-name="Layer 2"><g id="Layer_1-2" data-name="Layer 1"><path class="cls-1" d="M44.76,66.73v45.38q0,9.83-4.92,16.08-5.74,7.17-17.21,7.17-10.35,0-16.49-5.94a20.62,20.62,0,0,1-6.15-13H8a12.87,12.87,0,0,0,4.2,7.68q4.1,3.79,10.86,3.79,8.19,0,11.68-5.43,2.35-3.79,2.36-10.65V66.73Z"/><path class="cls-2" d="M90.86,65.91q15.16,0,24.89,10.14,9.53,9.83,9.53,24.58t-9.53,24.58Q106,135.36,90.86,135.36T66,125.22q-9.53-9.83-9.53-24.58T66,76.05Q75.7,65.91,90.86,65.91Zm0,62q12.09,0,19.57-7.89,7.17-7.58,7.17-19.36t-7.17-19.36q-7.48-7.89-19.57-7.89T71.29,81.27q-7.17,7.58-7.17,19.36T71.29,120Q78.77,127.88,90.86,127.88Z"/><path class="cls-3" d="M161.75,134.54h-7.68V107.7l-28.48-41h9.32l22.95,33,22.95-33h9.32l-28.37,41Z"/><path class="cls-4" d="M43.42,0V18.12a16.36,16.36,0,0,1,4.3-4,10.52,10.52,0,0,1,5.8-1.63,15.47,15.47,0,0,1,5.6.91,11.38,11.38,0,0,1,4.11,2.74,14.06,14.06,0,0,1,4,10.49v19H62.39V26.78a10,10,0,0,0-2.54-7.17,8.68,8.68,0,0,0-6.58-2.67,9.73,9.73,0,0,0-7,2.74,9.59,9.59,0,0,0-2.87,7.17V45.62H38.53V0Z"/><path class="cls-4" d="M100.83,40.4q-3.91,5.74-11.67,5.73A14.77,14.77,0,0,1,77.7,41.25a17.26,17.26,0,0,1-4.3-11.93A17.27,17.27,0,0,1,77.7,17.4a15.15,15.15,0,0,1,11.8-4.89,12.93,12.93,0,0,1,11.34,5.8V13h4.89V45.62h-4.89Zm-11,1.3a10.32,10.32,0,0,0,8.34-3.65,13,13,0,0,0,2.93-8.73,13,13,0,0,0-2.93-8.73,10.32,10.32,0,0,0-8.34-3.65,10.83,10.83,0,0,0-8.47,3.65,12.67,12.67,0,0,0-3.06,8.73,12.67,12.67,0,0,0,3.06,8.73A10.82,10.82,0,0,0,89.82,41.71Z"/><path class="cls-4" d="M119.08,45.62h-4.89V0h4.89Z"/><path class="cls-4" d="M142.08,41.71q6.58,0,9.45-5.47h5.34a15.73,15.73,0,0,1-5.37,7.17A15.48,15.48,0,0,1,142,46.14a15.76,15.76,0,0,1-12-4.89,16.68,16.68,0,0,1-4.5-11.93,17,17,0,0,1,4.3-11.93,16.84,16.84,0,0,1,23.72,0,17,17,0,0,1,4.3,11.93v2h-27.3a11.82,11.82,0,0,0,3.58,7.43A11,11,0,0,0,142.08,41.71Zm-.39-24.76a10.78,10.78,0,0,0-7.56,2.8,11.57,11.57,0,0,0-3.52,7h22.16a11.58,11.58,0,0,0-3.52-7A10.79,10.79,0,0,0,141.69,16.94Z"/><path class="cls-4" d="M172.19,58.52h-5.28l5.93-13.36L159.55,13H165l10.49,26.72L186.13,13h5.34Z"/></g></g></svg>